<svg id="e7V2tTUvowB1" xmlns="http://www.w3.org/2000/svg" xmlns:xlink="http://www.w3.org/1999/xlink" viewBox="0 0 300 300" shape-rendering="geometricPrecision" text-rendering="geometricPrecision" project-id="1edca8c6c776492cbe47ff5842824094" export-id="d3b1129e8aa943bca2463c6132ae4084" cached="false"><path d="M208.055806,93.609361q-.90009,0,13.50135,31.50315l-2.70027,35.103511q-20.702071,39.60396-21.602161,39.60396t-53.105311,24.302429l-41.40414-4.50045-27.902791-23.40234-6.300631-19.80198l7.20072-16.20162l14.40144,6.30063l2.70027,12.60126l23.402341,7.20072l33.753375-.90009l23.852385-29.70297l7.20072-36.903691-14.40144-21.60216l35.103511-18.0018-10.801081-17.101711q-30.60306,15.30153-31.50315,15.30153t5.40054,13.50135l29.70297-13.50135l9.900991,9.0009" transform="translate(4.950496 1.800182)" fill="#fcff00" stroke="#3f5787" stroke-width="0.6"/><path d="M202.205221,81.008102L171.602159,95.409543l-7.20072-14.401442l31.50315-17.101711l6.300632,17.101712Z" transform="translate(0 0.000003)" fill="#714f08" stroke="#3f5787" stroke-width="0.6"/><path d="M97.794778,178.217823h-24.30243l7.20072-16.20162l14.40144,6.30063l2.70027,9.90099Z" fill="#714f08" stroke="#3f5787" stroke-width="0.6"/></svg>
